# xmcd
#
# Track frame offsets:
#	150
#	10762
#	21487
#	30450
#	41100
#	55087
#	70012
#	76612
#	86625
#	98325
#	111825
#	118650
#	130687
#	142987
#	155512
#
# Disc length: 2257 seconds
#
# Revision: 0
# Processed by: cddbd v1.5.2PL0 Copyright (c) Steve Scherf et al.
# Submitted via: audiograbber 1.83.01
#
DISCID=b108cf0f
DTITLE=Michael Cleveland - Flame Keeper
DYEAR=2002
DGENRE=Bluegrass
TTITLE0=Dance Around Molly
TTITLE1=Six Feet Under The Ground
TTITLE2=North Carolina Breakdown
TTITLE3=Lost Indian
TTITLE4=Prayer Bells Of Heaven
TTITLE5=Blue Violet Waltz
TTITLE6=Rye Straw
TTITLE7=Too Late To Walk The Floor
TTITLE8=Virginia Darling
TTITLE9=Will You Be Satisfied That Way
TTITLE10=Bear Creek Hop
TTITLE11=Goodbye Old Pal
TTITLE12=Two O'Clock In The Morning
TTITLE13=Shenandoah Waltz
TTITLE14=Lee Highway Blues
EXTD=
EXTT0=
EXTT1=
EXTT2=
EXTT3=
EXTT4=
EXTT5=
EXTT6=
EXTT7=
EXTT8=
EXTT9=
EXTT10=
EXTT11=
EXTT12=
EXTT13=
EXTT14=
PLAYORDER=
